<svg width="606" height="94" viewBox="0 0 606 94" fill="none" xmlns="http://www.w3.org/2000/svg">
<path d="M35.3281 93.568C28.4161 93.568 22.2721 91.9893 16.8961 88.832C11.6054 85.5893 7.46678 80.768 4.48011 74.368C1.49344 67.8826 0.000109673 59.7333 0.000109673 49.92C0.000109673 43.0933 0.76811 36.992 2.30411 31.616C3.92544 26.24 6.27211 21.632 9.34411 17.792C12.5014 13.952 16.3414 11.0506 20.8641 9.08798C25.3868 7.03998 30.6348 6.01598 36.6081 6.01598C40.9601 6.01598 44.8854 6.61331 48.3841 7.80798C51.9681 8.91731 55.0828 10.624 57.7281 12.928C60.4588 15.1466 62.6774 17.92 64.3841 21.248C66.0908 24.4906 67.2428 28.2453 67.8401 32.512L60.6721 34.304C60.2454 28.928 58.7948 24.704 56.3201 21.632C53.9308 18.4746 50.9868 16.256 47.4881 14.976C44.0748 13.696 40.4481 13.056 36.6081 13.056C31.0614 13.056 26.0694 14.2933 21.6321 16.768C17.2801 19.1573 13.8241 23.0826 11.2641 28.544C8.78944 33.92 7.55211 41.0453 7.55211 49.92C7.55211 56.9173 8.32011 62.7626 9.85611 67.456C11.4774 72.1493 13.5681 75.8613 16.1281 78.592C18.7734 81.3226 21.7601 83.2853 25.0881 84.48C28.5014 85.5893 31.9148 86.144 35.3281 86.144C40.2774 86.144 44.5441 85.1626 48.1281 83.2C51.7121 81.2373 54.6134 78.2506 56.8321 74.24C59.1361 70.144 60.6294 65.024 61.3121 58.88H39.8081V52.096H68.6081V62.976V92.032H61.1841L64.8961 68.096H63.3601C62.3361 73.8986 60.6294 78.6773 58.2401 82.432C55.9361 86.1866 52.8641 89.0026 49.0241 90.88C45.2694 92.672 40.7041 93.568 35.3281 93.568ZM105.81 93.568C100.775 93.568 96.3808 92.7573 92.6261 91.136C88.8714 89.5146 85.7141 87.2106 83.1541 84.224C80.6794 81.2373 78.8021 77.7386 77.5221 73.728C76.2421 69.632 75.6021 65.152 75.6021 60.288C75.6021 55.168 76.2421 50.4746 77.5221 46.208C78.8021 41.9413 80.6794 38.2293 83.1541 35.072C85.6288 31.8293 88.6581 29.3546 92.2421 27.648C95.9114 25.856 100.135 24.96 104.914 24.96C108.754 24.96 112.295 25.6426 115.538 27.008C118.866 28.288 121.725 30.336 124.114 33.152C126.589 35.968 128.466 39.5946 129.746 44.032C131.026 48.384 131.581 53.5893 131.41 59.648L79.8261 60.16V53.632L126.674 53.248L124.242 58.752C124.583 52.864 123.943 47.9573 122.322 44.032C120.786 40.0213 118.525 36.992 115.538 34.944C112.551 32.896 108.967 31.872 104.786 31.872C100.263 31.872 96.3381 33.024 93.0101 35.328C89.7674 37.5466 87.2501 40.7893 85.4581 45.056C83.6661 49.2373 82.7701 54.3146 82.7701 60.288C82.7701 68.5653 84.6474 75.0506 88.4021 79.744C92.2421 84.352 98.1301 86.656 106.066 86.656C108.967 86.656 111.527 86.3573 113.746 85.76C115.965 85.0773 117.885 84.1386 119.506 82.944C121.127 81.664 122.493 80.1706 123.602 78.464C124.711 76.7573 125.565 74.8373 126.162 72.704L132.562 74.368C131.623 77.44 130.343 80.1706 128.722 82.56C127.186 84.9493 125.266 86.9546 122.962 88.576C120.743 90.1973 118.183 91.4346 115.282 92.288C112.466 93.1413 109.309 93.568 105.81 93.568ZM157.36 93.184C152.155 93.184 148.229 91.7333 145.584 88.832C142.939 85.9306 141.616 81.664 141.616 76.032V33.024H131.632V26.496H137.52C139.312 26.496 140.592 26.1546 141.36 25.472C142.128 24.704 142.597 23.5093 142.768 21.888L143.792 11.648H148.784V26.496H169.008V33.024H148.784V76.16C148.784 79.8293 149.595 82.4746 151.216 84.096C152.837 85.632 155.141 86.4 158.128 86.4C159.749 86.4 161.499 86.1866 163.376 85.76C165.253 85.248 167.259 84.1813 169.392 82.56V90.496C167.088 91.4346 164.912 92.1173 162.864 92.544C160.901 92.9706 159.067 93.184 157.36 93.184ZM178.802 92.032V7.55198H209.906L227.186 67.584H227.442L244.338 7.55198H273.778V92.032H254.578V28.416H254.322L235.25 92.032H217.074L198.258 28.416H198.002V92.032H178.802ZM312.468 93.824C305.983 93.824 300.223 92.544 295.188 89.984C290.153 87.3386 286.228 83.4133 283.412 78.208C280.596 72.9173 279.188 66.304 279.188 58.368C279.188 50.0906 280.639 43.3493 283.54 38.144C286.527 32.8533 290.537 28.9706 295.572 26.496C300.692 23.936 306.452 22.656 312.852 22.656C319.508 22.656 325.311 23.9786 330.26 26.624C335.295 29.184 339.177 33.1093 341.908 38.4C344.724 43.6053 346.132 50.2186 346.132 58.24C346.132 66.5173 344.639 73.3013 341.652 78.592C338.751 83.7973 334.74 87.6373 329.62 90.112C324.585 92.5866 318.868 93.824 312.468 93.824ZM312.98 78.592C315.625 78.592 317.844 77.8666 319.636 76.416C321.428 74.88 322.793 72.6613 323.732 69.76C324.671 66.8586 325.14 63.4026 325.14 59.392C325.14 54.9546 324.628 51.2426 323.604 48.256C322.58 45.184 321.087 42.8373 319.124 41.216C317.247 39.5946 314.943 38.784 312.212 38.784C309.652 38.784 307.476 39.552 305.684 41.088C303.892 42.5386 302.527 44.7146 301.588 47.616C300.649 50.5173 300.18 54.016 300.18 58.112C300.18 64.5973 301.289 69.632 303.508 73.216C305.812 76.8 308.969 78.592 312.98 78.592ZM351.045 92.032V53.76V24.448H368.581V51.968H369.605C370.117 45.312 371.226 39.8506 372.933 35.584C374.64 31.232 377.072 27.9893 380.229 25.856C383.386 23.7226 387.397 22.656 392.261 22.656C399.6 22.656 405.104 25.088 408.773 29.952C412.528 34.816 414.405 42.0693 414.405 51.712V92.032H393.669V54.4C393.669 49.792 392.944 46.336 391.493 44.032C390.128 41.728 387.909 40.576 384.837 40.576C382.277 40.576 380.016 41.472 378.053 43.264C376.09 45.056 374.554 47.9573 373.445 51.968C372.336 55.9786 371.781 61.3546 371.781 68.096V92.032H351.045ZM420.36 92.032V24.448H441.096V92.032H420.36ZM430.6 19.584C426.675 19.584 423.645 18.7733 421.512 17.152C419.464 15.4453 418.44 13.0133 418.44 9.85598C418.44 6.61331 419.464 4.18131 421.512 2.55997C423.645 0.85331 426.675 -2.28882e-05 430.6 -2.28882e-05C434.611 -2.28882e-05 437.64 0.85331 439.688 2.55997C441.821 4.26664 442.888 6.69865 442.888 9.85598C442.888 12.928 441.821 15.3173 439.688 17.024C437.64 18.7306 434.611 19.584 430.6 19.584ZM474.808 93.568C466.872 93.568 460.941 91.5626 457.016 87.552C453.176 83.456 451.256 77.1413 451.256 68.608V40.576H443.832V27.52H444.216C449.507 26.8373 453.261 25.088 455.48 22.272C457.699 19.3706 459.064 15.0186 459.576 9.21598V8.95998H471.736V24.448H487.224V41.088H471.736V66.688C471.736 69.9306 472.504 72.2346 474.04 73.6C475.661 74.9653 477.624 75.648 479.928 75.648C481.123 75.648 482.36 75.4773 483.64 75.136C484.92 74.7946 486.115 74.3253 487.224 73.728V91.776C484.579 92.544 482.232 93.0133 480.184 93.184C478.136 93.44 476.344 93.568 474.808 93.568ZM521.603 93.824C515.118 93.824 509.358 92.544 504.323 89.984C499.288 87.3386 495.363 83.4133 492.547 78.208C489.731 72.9173 488.323 66.304 488.323 58.368C488.323 50.0906 489.774 43.3493 492.675 38.144C495.662 32.8533 499.672 28.9706 504.707 26.496C509.827 23.936 515.587 22.656 521.987 22.656C528.643 22.656 534.446 23.9786 539.395 26.624C544.43 29.184 548.312 33.1093 551.043 38.4C553.859 43.6053 555.267 50.2186 555.267 58.24C555.267 66.5173 553.774 73.3013 550.787 78.592C547.886 83.7973 543.875 87.6373 538.755 90.112C533.72 92.5866 528.003 93.824 521.603 93.824ZM522.115 78.592C524.76 78.592 526.979 77.8666 528.771 76.416C530.563 74.88 531.928 72.6613 532.867 69.76C533.806 66.8586 534.275 63.4026 534.275 59.392C534.275 54.9546 533.763 51.2426 532.739 48.256C531.715 45.184 530.222 42.8373 528.259 41.216C526.382 39.5946 524.078 38.784 521.347 38.784C518.787 38.784 516.611 39.552 514.819 41.088C513.027 42.5386 511.662 44.7146 510.723 47.616C509.784 50.5173 509.315 54.016 509.315 58.112C509.315 64.5973 510.424 69.632 512.643 73.216C514.947 76.8 518.104 78.592 522.115 78.592ZM560.18 92.032V55.296V24.448H578.1V51.328H579.124C579.636 44.16 580.617 38.528 582.068 34.432C583.604 30.2506 585.481 27.3066 587.7 25.6C590.004 23.808 592.564 22.912 595.38 22.912C596.916 22.912 598.495 23.1253 600.116 23.552C601.823 23.9786 603.487 24.6613 605.108 25.6L604.084 48.64C602.207 47.5306 600.372 46.72 598.58 46.208C596.788 45.6106 595.081 45.312 593.46 45.312C590.729 45.312 588.425 46.08 586.548 47.616C584.671 49.152 583.22 51.4133 582.196 54.4C581.257 57.3866 580.788 61.0133 580.788 65.28V92.032H560.18Z" fill="#04BF7B"/>
</svg>
